<?xml version="1.0" encoding="UTF-8"?>
<svg width="752pt" height="752pt" version="1.1" viewBox="0 0 752 752" xmlns="http://www.w3.org/2000/svg">
 <defs>
  <clipPath id="a">
   <path d="m176 145h400v467.79h-400z"/>
  </clipPath>
 </defs>
 <g clip-path="url(#a)">
  <path d="m569.33 346.46-25.973-3.3242c3.7812-0.64453 7.5938-1.3984 11.367-2.3398l8.0664-2.0195v0.003906c2.332-0.58594 4.2383-2.2695 5.1055-4.5117 0.86719-2.2461 0.58594-4.7695-0.74609-6.7734l-14.801-22.199c-1.375-2.0586-3.6836-3.293-6.1562-3.293h-32.891c8.582-4.4531 16.445-10.172 23.32-16.969 2.8906-2.8867 2.8906-7.5703 0-10.461l-22.199-22.199c-2.1367-2.1367-5.3594-2.7578-8.1367-1.5703l-33.602 14.398v0.003906c7.1016-10.113 12.824-21.129 17.02-32.754l9.0195-6.0156c12.582-8.4219 22.809-19.914 29.707-33.395l12.047-18.016c3.5312-5.3008 4.1875-12.012 1.7461-17.891-2.4414-5.8789-7.6562-10.152-13.902-11.391-6.2461-1.2383-12.695 0.71875-17.195 5.2227l-22.695 22.695-38.266 28.703v0.042968c-0.92969 0.67188-1.6914 1.5508-2.2188 2.5703-3.1016 6.1953-6.5273 12.336-10.176 18.246-6.1602 9.7227-13.047 18.961-20.609 27.637l-1.0508 1.2656c-3.5312-1.7109-7.7852-0.34375-9.6602 3.1016l-6.2891 11.602-12.711 6.3477-0.003906 0.003906c-1.1523 0.57812-2.1328 1.4453-2.8477 2.5156l-14.484 21.793-12.395 14.059-2.125-2.125h0.003906c-2.4023-2.4023-6.1289-2.8633-9.043-1.1172l-0.15625 0.125c-0.046875-2.2539-0.45703-4.4844-1.2188-6.6055 2.6953-4.7031 4.4102-9.9062 5.043-15.289 2.4727-17.32 0.89063-34.977-4.625-51.582-1.293-3.8789-5.4844-5.9727-9.3594-4.6797l-29.059 9.6719c-2.207 0.73828-3.9375 2.4688-4.6758 4.6797l-5.3516 16.043v-0.003906c-2.4844 7.4414-6.6641 14.203-12.207 19.75-1.3906 1.3906-2.1719 3.2734-2.1719 5.2383 0 1.9609 0.78125 3.8477 2.1719 5.2344l17.129 17.109c0 0.23828-0.074219 0.46484-0.074219 0.73828v26.344l-3.8125 2.2852h0.003906c-2.2266 1.3398-3.5898 3.7461-3.5898 6.3438v39.566l-0.28906 0.32422c-0.44922 0.51172-0.82812 1.082-1.125 1.6953-0.10547 0.22266-0.13281 0.46484-0.22266 0.69531-0.16016 0.39062-0.28906 0.79297-0.38281 1.2031-0.015626 0.23438-0.015626 0.47266 0 0.70313-0.058594 0.42969-0.078126 0.85937-0.054688 1.2891 0.15625 0.65625 0.30859 1.3125 0.46875 1.9688l0.15625 0.39062 5.7344 14.801c-2.8125 1.2695-4.5117 4.1797-4.2344 7.25l1.3555 16.699-14.875 7.4375v0.003906c-1.1523 0.57422-2.1328 1.4414-2.8477 2.5156l-19.375 28.984c-2.0312 3.0742-1.4922 7.1758 1.2656 9.6172l10.605 9.3516-13.918 20.988h-6.1055c-2.4727 0-4.7852 1.2344-6.1562 3.293l-39.461 59.199h-0.003906c-0.54297 0.84766-0.90625 1.8008-1.0547 2.7969l-25.676 25.676h-0.003906c-2.1094 2.1133-2.7461 5.2891-1.6094 8.0508 1.1406 2.7617 3.8242 4.5703 6.8125 4.582h184.99c2.2812 0 4.4297-1.0508 5.832-2.8477 1.4023-1.7969 1.8984-4.1406 1.3477-6.3516l-7.3984-29.523 0.93359-1.8789h-0.003906c3.5391 1.6094 7.3828 2.4453 11.27 2.4492 6.625-0.15625 13.082-2.1172 18.676-5.668 10.148-6.4961 18.188-15.805 23.125-26.797 3.7734-7.9141 5.9258-16.504 6.3281-25.262l37.117-45.383 28.273-29.777 5.6367-5.918c0.41406-0.49219 0.76172-1.0352 1.0352-1.6133 0.62891-1.0508 0.97656-2.2422 1.0234-3.4648v-10.625l45.559-7.2227c2.3594-0.375 4.3945-1.8633 5.4609-4.0039l12.055-24.117c1.5742-0.47266 3.1094-0.85156 4.7266-1.3906l1.1328-0.37891v0.003907c3.0234-1.0078 5.0625-3.8359 5.0625-7.0234v-22.199c0-3.7227-2.7656-6.8672-6.4609-7.3398zm-8.3398 24.152c-9.4883 2.9492-19.309 4.6875-29.234 5.1797-3.2773-6.7031-6.3789-13.508-9.3086-20.41l38.543 4.9297zm-97.785 82.195-0.050781-0.050782c-0.082031-0.097656-0.18359-0.15625-0.25781-0.24609l-0.003907 0.003906c-0.35938-0.42578-0.76562-0.80859-1.2031-1.1484-0.125-0.089844-0.28125-0.13281-0.41406-0.21484-0.22656-0.12891-0.45312-0.24219-0.69141-0.34766-0.23828-0.14453-0.48438-0.27734-0.73828-0.39063-0.097656 0-0.19922 0-0.29688-0.050781v-0.003906c-0.20703-0.050781-0.42188-0.09375-0.63672-0.125-0.25-0.050781-0.48828-0.11719-0.73828-0.14844-0.85938-0.10547-1.7266-0.058594-2.5703 0.13281l-41.742 10.434-15.664-7.8281v-6.5273c0-1.9609-0.77734-3.8438-2.168-5.2305l-11.098-11.098c-1.3867-1.3906-3.2695-2.168-5.2305-2.168h-9.3555l-42.836-21.461c-1.0312-0.5-2.1641-0.75391-3.3086-0.73828h-9.7383l-6.0664-15.629 6.3789-7.2461c4.0391-0.39844 8.1211 0.039063 11.988 1.2891 21.574 6.2578 42.254 15.277 61.52 26.832l14.164 8.4961v-0.003906c1.1445 0.69531 2.4609 1.0625 3.8008 1.0586h38.688c1.9609 0 3.8438-0.77734 5.2305-2.168l24.73-24.723 17.656 11.766-3.3242 3.2422c-0.625 0.64453-1.125 1.3945-1.4805 2.2188-0.10156 0.24219-0.18359 0.48828-0.25 0.74219-0.21094 0.60156-0.33594 1.2266-0.37891 1.8633 0 0.16406-0.097656 0.30469-0.097656 0.46484l0.003906 13.996zm-37.629 44.602c-2.625-6.7695-7.7031-12.301-14.223-15.488-5.8047-2.6758-12.348-3.3086-18.559-1.793l-4.8828-9.7695v0.003906c-0.625-1.25-1.5938-2.2969-2.7891-3.0195l-48.512-29.324c-0.46484-0.28125-0.96484-0.51172-1.4805-0.68359l-24.375-8.1406-0.73828-8.8047h12.43l42.836 21.461c1.0352 0.50391 2.168 0.75781 3.3164 0.74609h8.0352l6.7617 6.7617 0.003906 8.0391c-0.015625 2.8164 1.5703 5.3984 4.0898 6.6602l22.199 11.098c0.92578 0.4375 1.9375 0.67578 2.9609 0.69531 0.11719 0 0.21484 0.082032 0.33203 0.082032 0.60547 0 1.2109-0.074219 1.8008-0.22266l35.883-8.9688zm123.42-170.45c-11.859 2.5625-23.949 3.9258-36.082 4.0703l-5.2031-14.223h34.527zm-41.496-60.574 13.188 13.18h-0.003906c-7.6094 6.3125-16.301 11.191-25.656 14.398l-23.168-12.305zm-16.961-52.258-6.918 4.6094-16.207-10.812 27.215-20.41 16.762 5.5859v0.003906c-5.4727 8.3359-12.562 15.484-20.852 21.023zm31.047-52.715c1.3086-1.293 3.2891-1.6094 4.9375-0.79297 1.0938 0.54687 1.9023 1.5391 2.2148 2.7188 0.3125 1.1836 0.10156 2.4453-0.58203 3.4609l-8.8789 13.32-12.305-4.0781zm-71.184 69.559c2.418-3.9219 4.7422-7.9336 6.957-11.996l17.332 11.559h-0.003906c-5.832 14.527-14.281 27.863-24.922 39.344l-20.223-10.746c7.6367-8.8477 14.609-18.25 20.859-28.125zm-68.816 75.891c0.21875-0.25 0.42188-0.51172 0.60547-0.78516l13.711-20.562 13.039-6.5195c1.3555-0.68359 2.4688-1.7617 3.1953-3.0938l3.8984-7.1992 72.422 38.477 12.727 34.703c4.832 13.18 10.359 26.238 16.5 38.898l-14.266 13.898-25.328-16.887v0.003907c-2.9336-1.957-6.8438-1.5703-9.3359 0.92578l-26.898 26.883h-33.559l-12.402-7.4453c-20.367-12.215-42.227-21.742-65.035-28.355-1.3555-0.39062-2.6211-0.66016-3.8906-0.93359zm-72.188 59.574v-18.551l34.66-20.801zm1.8125-101.09 4.1719-12.527 18.219-6.0664 0.003906-0.003906c3.0781 12.316 3.7344 25.113 1.9375 37.68-0.24609 1.8086-0.64062 3.5977-1.1758 5.3438-2.8086-1.375-5.8867-2.0938-9.0117-2.1094h-2.3086c-5.4141 0.003907-10.617 2.1094-14.512 5.8672l-8.1758-8.1758c4.7539-5.9883 8.4258-12.758 10.855-20.008zm5.5898 43.359c0.003906-3.4453 2.7969-6.2383 6.2461-6.2422h2.3086c3.4453 0.003906 6.2383 2.7969 6.2422 6.2422v8.582l-14.801 8.8789zm-27.32 141.39 14.844-7.3984 25.32 8.4414 45.973 27.785 3.6992 7.3398 0.003907 0.003906c-8.5664 5.9219-15.492 13.91-20.141 23.227l-35.352-28.273c-1.3125-1.0508-2.9414-1.6211-4.625-1.6211h-35.879l-8.5078-7.5039zm-4.9961 44.305h32.129l36.867 29.496v-0.003906c-1.0234 3.7734-1.6836 7.6328-1.9766 11.531l-37.473-24.98v-0.003906c-1.2148-0.80859-2.6445-1.2422-4.1055-1.2422h-35.305zm-29.797 29.598h53.004l46.285 30.855c0.9375 2.6328 2.1953 5.1406 3.7422 7.4688l-3.0312 6.0742h-18.055c0.35938-1.0273 0.49219-2.1172 0.39062-3.1992-0.21875-2.207-1.418-4.1992-3.2617-5.4297l-29.598-19.727h-0.003907c-1.2148-0.8125-2.6406-1.2422-4.0977-1.2461h-29.598c-2.4766 0-4.7852 1.2383-6.1602 3.293l-17.535 26.309h-21.68zm62.039 44.398h-52.168l9.8633-14.801h23.398l20.223 13.48zm-115.26 29.598 14.801-14.801h139.15l3.6992 14.801zm207.55-62.156c-3.7305 8.3281-9.7617 15.414-17.391 20.422-4.7656 3.3867-10.867 4.2695-16.398 2.3672-4.9883-3.0508-8.2031-8.3164-8.6328-14.148-0.82812-9.0625 0.77734-18.18 4.6523-26.414s9.8789-15.285 17.391-20.426c3.3164-2.1133 7.125-3.3242 11.055-3.5156 1.8477-0.015625 3.6758 0.37891 5.3516 1.1562 4.9883 3.0469 8.2031 8.3164 8.625 14.148 0.10938 0.73828 0.074219 1.5547 0.13281 2.3242l-0.10547 0.125 0.11719 0.097656h0.003906c0.4375 8.2422-1.2148 16.465-4.8008 23.898zm132.25-136.95-25.027 3.9648 12.492-12.18c5.8242-0.10156 11.633-0.59375 17.391-1.4805z" fill="#fff"/>
 </g>
</svg>
